<svg xmlns="http://www.w3.org/2000/svg" viewBox="0 0 1600 1100" role="img" aria-label="Soft wool and sheepskin home lifestyle visual">
  <defs>
    <linearGradient id="bg" x1="0" x2="1" y1="0" y2="1">
      <stop offset="0" stop-color="#f9f4ea"/>
      <stop offset=".55" stop-color="#eaf3f5"/>
      <stop offset="1" stop-color="#e7d8c3"/>
    </linearGradient>
    <radialGradient id="wool" cx=".36" cy=".38" r=".58">
      <stop offset="0" stop-color="#ffffff"/>
      <stop offset=".62" stop-color="#efe3d1"/>
      <stop offset="1" stop-color="#cba882"/>
    </radialGradient>
    <filter id="soft" x="-20%" y="-20%" width="140%" height="140%">
      <feGaussianBlur stdDeviation="12"/>
    </filter>
    <pattern id="texture" width="44" height="44" patternUnits="userSpaceOnUse">
      <path d="M0 22c10-9 18-9 28 0s18 9 28 0" fill="none" stroke="#8f6d52" stroke-opacity=".11" stroke-width="3"/>
    </pattern>
  </defs>
  <rect width="1600" height="1100" fill="url(#bg)"/>
  <rect width="1600" height="1100" fill="url(#texture)" opacity=".5"/>
  <ellipse cx="1040" cy="350" rx="420" ry="280" fill="#fff" opacity=".55" filter="url(#soft)"/>
  <path d="M250 760c210-170 470-230 750-180 170 30 300 110 390 240H250z" fill="url(#wool)"/>
  <path d="M160 820c260-120 520-145 820-70 190 48 320 112 460 210H160z" fill="#f6eee3"/>
  <path d="M1080 240c100 10 178 67 210 150 41 107-29 218-154 244-132 27-268-48-301-163-33-112 71-247 245-231z" fill="#ffffff" opacity=".8"/>
  <path d="M990 540c-96 36-207 23-277-36-83-70-78-174 10-232 92-61 240-50 325 30 91 86 63 194-58 238z" fill="#e0c5a7" opacity=".42"/>
  <circle cx="335" cy="310" r="112" fill="#ffffff" opacity=".44"/>
  <circle cx="430" cy="365" r="86" fill="#d9e8ed" opacity=".52"/>
</svg>
